<svg width="534" height="164" viewBox="0 0 534 164" fill="none" xmlns="http://www.w3.org/2000/svg">
<path d="M295.311 0.0526207C295.311 0.0526207 293.689 -0.32159 290.633 0.92583C287.639 2.17325 284.084 2.42273 282.276 4.29386C280.467 6.16499 281.777 5.79076 278.783 8.65983C275.789 11.5913 276.288 12.4021 277.91 14.3356C279.469 16.2691 282.213 15.9572 285.145 14.3356C288.076 12.714 295.935 6.60158 296.746 4.41859C297.494 2.23561 297.868 -0.134492 295.311 0.0526207Z" fill="#B11116"/>
<path d="M246.973 14.2732C246.973 14.2732 249.468 12.7763 252.774 13.4624C256.142 14.1485 257.514 14.5227 255.082 16.5186C252.712 18.5145 248.096 22.0072 246.599 23.1299C245.102 24.2526 243.73 24.5644 241.734 23.1299C239.738 21.6954 239.738 20.3856 241.734 18.0155C243.73 15.583 246.973 14.2732 246.973 14.2732Z" fill="#B11116"/>
<path d="M231.256 32.6726C231.256 32.6726 251.901 21.3211 280.903 18.1402C306.101 14.9593 303.544 16.5186 305.478 17.0799C307.411 17.7036 309.282 17.8907 311.029 19.2629C312.713 20.5727 315.207 22.4438 311.029 22.7557C306.85 23.0675 278.097 25.5 267.182 27.0592C256.329 28.6185 235.684 33.4211 231.256 32.6726Z" fill="black"/>
<path d="M246.287 37.8495C246.287 37.8495 242.046 43.8995 240.3 46.7685C238.491 49.7 231.131 62.486 230.133 64.1077C229.198 65.7293 226.017 70.0953 222.836 68.037C219.593 66.0412 219.281 61.0515 221.526 56.6855C223.771 52.3819 229.759 45.2092 230.757 42.1531C231.755 39.0969 231.88 37.6 236.932 37.101C241.984 36.6644 246.287 37.8495 246.287 37.8495Z" fill="#B11116"/>
<path d="M276.662 29.2423C276.662 29.2423 269.801 30.8639 266.807 32.3608C263.814 33.8577 262.13 34.5438 259.635 38.7851C257.078 43.0263 249.219 49.9494 246.599 58.2448C243.98 66.5401 244.042 69.4716 246.849 69.7834C249.655 70.0953 251.152 69.7834 251.152 69.7834C251.152 69.7834 255.269 63.2968 256.329 61.7999C257.389 60.303 258.325 59.5546 259.76 57.1221C261.194 54.6896 263.564 52.6314 265.311 48.702C266.995 44.7726 271.485 40.1572 273.731 37.101C275.976 33.9825 280.28 28.8057 276.662 29.2423Z" fill="#B11116"/>
<path d="M0 119.967V78.9265H5.11442V95.829H18.7113V78.9265H23.8257V119.967H18.7113V102.44H5.11442V119.967H0Z" fill="#2E3192"/>
<path d="M37.6721 89.8414C43.8468 89.8414 46.903 94.5192 46.903 103.875C46.903 105.122 46.8406 106.37 46.7159 107.617H33.2438C33.2438 111.858 35.3644 113.979 39.5432 113.979C41.6015 113.979 43.6597 113.667 45.6556 113.106V119.156C43.8468 119.717 41.6638 120.029 39.1066 120.029C31.7468 120.029 28.067 114.914 28.067 104.623C28.1917 94.7687 31.3726 89.8414 37.6721 89.8414ZM33.3061 102.316H41.9757V102.066C41.9757 97.8872 40.5412 95.829 37.7345 95.829C34.9901 95.829 33.4932 98.012 33.3061 102.316Z" fill="#2E3192"/>
<path d="M50.77 119.967V89.8414H54.6993L55.323 93.7084C57.0694 91.1512 59.0029 89.8414 60.9364 89.8414V95.9537C59.0029 95.9537 57.3189 97.1388 55.822 99.5089V119.967H50.77Z" fill="#2E3192"/>
<path d="M68.9823 78.9264V84.9764H63.8679V78.9264H68.9823ZM68.9823 89.8414V119.967H63.8679V89.8414H68.9823Z" fill="#2E3192"/>
<path d="M73.5354 84.9764H77.34L78.0885 89.8414H83.2029V95.8914H78.6498V109.738C78.6498 112.544 79.4606 113.979 81.0823 113.979H83.1405V120.029H78.5874C75.2194 120.029 73.473 117.347 73.473 111.921V84.9764H73.5354Z" fill="#2E3192"/>
<path d="M85.6978 110.611C85.6978 104.623 88.6292 101.629 94.492 101.629C95.8642 101.629 97.2364 101.817 98.6085 102.191V99.9454C98.6085 97.2635 97.2988 95.8913 94.6792 95.8913C92.4962 95.8913 90.0013 96.3903 87.3194 97.3259V91.2759C90.0013 90.3403 92.4962 89.8414 94.6792 89.8414C100.729 89.8414 103.723 93.147 103.723 99.7583V119.967H100.729L98.9204 117.285C97.174 119.093 95.2405 119.967 93.1199 119.967C88.1926 119.967 85.6978 116.848 85.6978 110.611ZM94.492 106.806C92.0596 106.806 90.8122 108.054 90.8122 110.549C90.8122 113.23 91.8725 114.54 93.9307 114.54C95.6147 114.54 97.2364 113.729 98.6709 112.17V107.368C97.3611 106.993 95.989 106.806 94.492 106.806Z" fill="#2E3192"/>
<path d="M126.675 117.659C126.675 126.453 123.12 130.881 116.01 130.881C113.515 130.881 111.27 130.383 109.336 129.447V123.397C111.332 124.333 113.515 124.831 116.01 124.831C119.69 124.831 121.561 122.524 121.561 117.971C120.064 118.906 118.38 119.405 116.634 119.405C110.584 119.405 107.59 114.54 107.59 104.748C107.59 94.831 111.083 89.8414 118.131 89.8414C120.501 89.8414 123.307 90.278 126.675 91.0888V117.659ZM121.561 96.7022C120.75 96.2656 119.565 96.0161 118.006 96.0161C114.451 96.0161 112.704 98.8852 112.704 104.686C112.704 110.299 114.201 113.106 117.257 113.106C118.754 113.106 120.189 112.607 121.561 111.546V96.7022Z" fill="#2E3192"/>
<path d="M140.023 89.8414C146.198 89.8414 149.254 94.5192 149.254 103.875C149.254 105.122 149.191 106.37 149.067 107.617H135.595C135.595 111.858 137.715 113.979 141.894 113.979C143.952 113.979 146.01 113.667 148.006 113.106V119.156C146.198 119.717 144.015 120.029 141.457 120.029C134.098 120.029 130.418 114.914 130.418 104.623C130.542 94.7687 133.723 89.8414 140.023 89.8414ZM135.657 102.316H144.326V102.066C144.326 97.8872 142.892 95.829 140.085 95.829C137.341 95.829 135.906 98.012 135.657 102.316Z" fill="#2E3192"/>
<path d="M162.289 119.967V78.9264H173.079C182.248 78.9264 186.801 85.413 186.801 98.3238C186.801 112.732 182.248 119.967 173.079 119.967H162.289ZM173.079 113.355C178.818 113.355 181.687 108.366 181.687 98.3238C181.687 89.779 178.818 85.5378 173.079 85.5378H167.404V113.355H173.079Z" fill="#2E3192"/>
<path d="M189.67 110.611C189.67 104.623 192.602 101.629 198.464 101.629C199.837 101.629 201.209 101.817 202.581 102.191V99.9454C202.581 97.2635 201.271 95.8913 198.652 95.8913C196.469 95.8913 193.974 96.3903 191.292 97.3259V91.2759C193.974 90.3403 196.469 89.8414 198.652 89.8414C204.702 89.8414 207.695 93.147 207.695 99.7583V119.967H204.702L202.893 117.285C201.146 119.093 199.213 119.967 197.092 119.967C192.165 119.967 189.67 116.848 189.67 110.611ZM198.527 106.806C196.094 106.806 194.847 108.054 194.847 110.549C194.847 113.23 195.907 114.54 197.966 114.54C199.65 114.54 201.271 113.729 202.706 112.17V107.368C201.334 106.993 199.961 106.806 198.527 106.806Z" fill="#2E3192"/>
<path d="M217.675 78.9264V84.9764H212.56V78.9264H217.675ZM217.675 89.8414V119.967H212.56V89.8414H217.675Z" fill="#2E3192"/>
<path d="M222.54 119.967V89.8414H226.469L227.093 93.7084C228.839 91.1512 230.773 89.8414 232.706 89.8414V95.9537C230.773 95.9537 229.089 97.1388 227.592 99.5089V119.967H222.54Z" fill="#2E3192"/>
<path d="M233.205 89.8414H238.631L243.746 111.546L248.735 89.8414H254.037L245.617 120.84C244.12 126.328 241.75 130.195 238.444 132.503L235.949 127.326C238.195 125.829 239.879 123.459 240.877 120.154L233.205 89.8414Z" fill="#2E3192"/>
<path d="M264.703 90.278C264.703 82.7311 268.008 78.9264 274.557 78.9264C276.927 78.9264 279.235 79.4254 281.48 80.361V86.411C279.235 85.4754 276.99 84.9764 274.807 84.9764C271.501 84.9764 269.817 86.7228 269.817 90.1532C269.817 94.145 271.127 96.2032 273.746 96.2032H280.295V92.0867H283.04L285.035 96.1408H288.528V102.191H285.41V105.933C285.41 115.351 281.855 120.091 274.807 120.091C268.071 120.091 264.703 116.1 264.703 108.116C264.703 103.75 265.888 100.756 268.258 99.1346C265.888 97.513 264.703 94.5192 264.703 90.278ZM273.809 102.191C271.127 102.191 269.817 104.124 269.817 107.929C269.817 111.921 271.501 113.917 274.869 113.917C278.486 113.917 280.295 111.235 280.295 105.808V102.128H273.809V102.191Z" fill="#2E3192"/>
<path d="M318.279 78.9264V85.4754H305.244V95.829H317.655V102.627H305.181V119.967H300.192V78.9264H318.279Z" fill="#2E3192"/>
<path d="M321.148 104.935C321.148 94.831 324.516 89.779 331.19 89.779C337.864 89.779 341.232 94.831 341.232 104.935C341.232 115.039 337.864 120.029 331.19 120.029C324.516 120.029 321.211 114.977 321.148 104.935ZM331.19 114.228C334.496 114.228 336.117 111.11 336.117 104.81C336.117 98.6981 334.496 95.5795 331.19 95.5795C327.884 95.5795 326.263 98.6357 326.263 104.81C326.263 111.11 327.947 114.228 331.19 114.228Z" fill="#2E3192"/>
<path d="M344.163 104.935C344.163 94.831 347.531 89.779 354.205 89.779C360.879 89.779 364.247 94.831 364.247 104.935C364.247 115.039 360.879 120.029 354.205 120.029C347.531 120.029 344.163 114.977 344.163 104.935ZM354.205 114.228C357.511 114.228 359.132 111.11 359.132 104.81C359.132 98.6981 357.511 95.5795 354.205 95.5795C350.899 95.5795 349.278 98.6357 349.278 104.81C349.278 111.11 350.899 114.228 354.205 114.228Z" fill="#2E3192"/>
<path d="M386.014 118.158C382.896 119.343 379.902 119.967 376.908 119.967C370.359 119.967 367.053 114.727 367.053 104.311C367.053 94.6439 370.234 89.8414 376.658 89.8414C378.031 89.8414 379.403 90.3403 380.837 91.2759V78.9264H385.952V118.158H386.014ZM380.9 97.7001C379.839 96.6398 378.53 96.1408 376.908 96.1408C373.727 96.1408 372.168 98.8228 372.168 104.062C372.168 110.361 373.852 113.48 377.157 113.48C378.467 113.48 379.777 113.23 380.962 112.669V97.7001H380.9Z" fill="#2E3192"/>
<path d="M400.048 119.967V78.9264H412.397C418.01 78.9264 420.88 82.7934 420.88 90.4651C420.88 98.8228 417.012 103.875 409.341 105.621L408.592 98.8228C413.208 97.5754 415.516 94.8311 415.516 90.6522C415.516 87.2218 414.393 85.5378 412.085 85.5378H405.162V119.904H400.048V119.967Z" fill="#2E3192"/>
<path d="M423.749 119.967V89.8414H427.678L428.302 93.7084C430.048 91.1512 431.982 89.8414 433.915 89.8414V95.9537C431.982 95.9537 430.297 97.1388 428.801 99.5089V119.967H423.749Z" fill="#2E3192"/>
<path d="M435.911 104.935C435.911 94.831 439.279 89.779 445.953 89.779C452.626 89.779 455.994 94.831 455.994 104.935C455.994 115.039 452.626 120.029 445.953 120.029C439.279 120.029 435.911 114.977 435.911 104.935ZM445.953 114.228C449.258 114.228 450.88 111.11 450.88 104.81C450.88 98.6981 449.258 95.5795 445.953 95.5795C442.647 95.5795 441.025 98.6357 441.025 104.81C441.025 111.11 442.647 114.228 445.953 114.228Z" fill="#2E3192"/>
<path d="M477.824 118.158C474.706 119.343 471.712 119.967 468.718 119.967C462.169 119.967 458.926 114.727 458.926 104.311C458.926 94.6439 462.107 89.8414 468.531 89.8414C469.903 89.8414 471.275 90.3403 472.71 91.2759V78.9264H477.824V118.158ZM472.71 97.7001C471.649 96.6398 470.34 96.1408 468.718 96.1408C465.537 96.1408 463.978 98.8228 463.978 104.062C463.978 110.361 465.6 113.48 468.968 113.48C470.277 113.48 471.587 113.23 472.772 112.669V97.7001H472.71Z" fill="#2E3192"/>
<path d="M500.839 89.8414V119.967H496.847L496.224 116.1C493.916 118.657 491.421 119.967 488.802 119.967C484.685 119.967 482.564 116.349 482.564 109.052V89.8414H487.679V108.865C487.679 112.17 488.677 113.854 490.61 113.854C492.294 113.854 493.978 112.856 495.662 110.923V89.9037H500.839V89.8414Z" fill="#2E3192"/>
<path d="M520.673 119.093C518.989 119.655 517.243 119.967 515.434 119.967C508.199 119.967 504.644 114.727 504.644 104.311C504.644 94.6439 508.261 89.8414 515.434 89.8414C517.243 89.8414 518.989 90.1532 520.673 90.7145V96.7645C518.989 96.2032 517.367 95.8913 515.871 95.8913C511.816 95.8913 509.758 98.698 509.758 104.374C509.758 110.798 511.816 113.979 515.871 113.979C517.43 113.979 519.051 113.667 520.673 113.106V119.093Z" fill="#2E3192"/>
<path d="M523.729 84.9764H527.534L528.282 89.8414H533.397V95.8914H528.844V109.738C528.844 112.544 529.655 113.979 531.276 113.979H533.334V120.029H528.781C525.413 120.029 523.667 117.347 523.667 111.921V84.9764H523.729Z" fill="#2E3192"/>
<path d="M184.93 142.171L185.429 142.67C184.493 143.792 183.745 144.665 183.059 145.164C182.373 145.663 181.874 145.975 181.562 145.975C181.313 145.975 181.188 145.726 181.188 145.227C181.188 144.042 181.999 142.171 183.558 139.738C184.868 137.618 185.554 136.37 185.554 136.121C185.554 135.934 185.491 135.809 185.304 135.809C184.992 135.809 184.182 136.495 182.934 137.929C181.687 139.302 180.127 141.297 178.256 143.855C176.136 146.724 174.701 148.72 173.953 149.967C175.45 150.092 176.635 150.279 177.633 150.528C178.568 150.778 179.94 151.152 181.749 151.651C183.558 152.15 184.868 152.462 185.741 152.524C184.681 153.709 183.994 154.52 183.558 154.957C183.121 155.393 182.872 155.643 182.622 155.705C182.31 155.83 181.811 155.83 181.125 155.705C180.502 155.58 179.441 155.331 178.007 154.957C176.572 154.582 175.263 154.271 174.015 154.021C172.768 153.772 171.645 153.647 170.585 153.647C170.023 153.647 169.524 153.709 169.088 153.834C168.651 153.959 168.09 154.208 167.341 154.52C166.593 154.832 166.094 154.957 165.782 154.957C165.346 154.957 165.158 154.77 165.158 154.395C165.158 154.208 165.221 153.959 165.408 153.709C165.782 153.148 166.156 152.587 166.468 152.025C166.842 151.464 167.154 151.09 167.591 150.778C167.965 150.466 168.526 150.217 169.275 150.092C170.023 149.905 170.959 149.842 172.206 149.842C174.015 147.036 175.699 144.603 177.258 142.42C178.818 140.237 180.252 138.428 181.562 136.994C182.872 135.497 183.994 134.374 184.93 133.626C185.928 132.877 186.676 132.503 187.238 132.503C187.612 132.503 187.924 132.628 188.173 132.815C188.423 133.064 188.485 133.376 188.485 133.751C188.423 135.185 187.238 137.929 184.93 142.171Z" fill="black"/>
<path d="M190.232 150.154V150.591C190.232 151.277 190.419 151.776 190.731 152.15C191.042 152.524 191.479 152.711 191.978 152.711C192.539 152.711 193.101 152.587 193.662 152.337C194.223 152.088 194.847 151.713 195.408 151.339C195.97 150.903 196.718 150.341 197.529 149.655V150.653C196.282 152.15 195.096 153.335 193.974 154.146C192.851 154.957 191.728 155.331 190.606 155.331C189.608 155.331 188.797 154.957 188.236 154.208C187.674 153.46 187.362 152.399 187.362 151.027C187.362 149.842 187.612 148.782 188.173 147.846C188.735 146.911 189.608 145.913 190.855 144.853C191.728 144.104 192.539 143.605 193.35 143.231C194.161 142.857 194.909 142.67 195.595 142.67C196.094 142.67 196.531 142.794 196.843 143.044C197.155 143.293 197.279 143.668 197.279 144.104C197.279 144.79 197.03 145.476 196.469 146.225C195.97 146.911 195.159 147.597 194.099 148.283C193.101 148.844 191.791 149.53 190.232 150.154ZM190.356 149.031C191.354 148.657 192.227 148.158 192.914 147.597C193.6 147.036 194.161 146.474 194.473 145.913C194.785 145.414 194.972 144.977 194.972 144.728C194.972 144.478 194.847 144.354 194.598 144.354C194.41 144.354 194.099 144.478 193.6 144.728C193.163 144.977 192.664 145.289 192.227 145.726C191.791 146.162 191.354 146.599 190.98 147.16C190.731 147.784 190.481 148.408 190.356 149.031Z" fill="black"/>
<path d="M210.814 150.653L205.263 155.206C203.704 157.888 202.269 159.884 201.022 161.256C199.774 162.566 198.776 163.252 198.153 163.252C197.841 163.252 197.654 163.065 197.654 162.628C197.654 161.817 198.09 160.82 198.901 159.572C199.213 159.073 199.587 158.574 200.024 158.138C200.46 157.639 200.835 157.264 201.209 156.953C201.583 156.641 202.082 156.204 202.706 155.705C203.33 155.206 203.766 154.832 203.953 154.645C205.076 152.399 205.887 150.653 206.386 149.406C205.325 150.528 204.452 151.402 203.641 152.15C202.831 152.836 202.144 153.397 201.521 153.772C200.897 154.146 200.273 154.333 199.774 154.333C199.213 154.333 198.652 153.896 198.215 152.961C197.716 152.025 197.467 151.09 197.467 150.154C197.467 149.718 197.591 149.219 197.778 148.72C197.966 148.221 198.277 147.722 198.776 147.16C199.213 146.599 199.774 146.038 200.46 145.476C201.146 144.915 201.957 144.291 202.831 143.792C204.577 142.732 205.887 142.171 206.822 142.171C207.508 142.171 207.883 142.42 207.883 142.981C207.883 143.73 207.134 144.416 205.575 145.102C204.639 145.539 203.704 146.038 202.768 146.724C201.833 147.41 201.084 148.096 200.523 148.907C199.961 149.655 199.65 150.341 199.65 150.965C199.65 151.277 199.712 151.526 199.837 151.651C199.961 151.838 200.149 151.901 200.398 151.901C200.772 151.901 201.209 151.713 201.708 151.339C202.207 150.965 202.955 150.341 203.953 149.468C204.39 149.031 205.014 148.408 205.7 147.472C206.448 146.537 207.072 145.851 207.508 145.352C208.007 144.853 208.444 144.603 208.818 144.603C209.068 144.603 209.255 144.665 209.379 144.79C209.504 144.915 209.567 145.102 209.567 145.414C209.567 145.913 209.379 146.661 208.943 147.659C208.506 148.657 207.82 150.216 206.76 152.462L210.814 149.53V150.653Z" fill="black"/>
<path d="M212.623 146.537C214.307 144.977 215.928 143.855 217.55 143.106C219.109 142.358 220.357 141.984 221.23 141.984C221.479 141.984 221.667 142.108 221.854 142.295C222.041 142.482 222.228 142.732 222.353 142.981C222.477 143.231 222.54 143.418 222.54 143.543C222.54 143.73 222.477 143.917 222.29 143.979C222.103 144.042 221.854 144.167 221.479 144.291C221.542 144.478 221.667 144.728 221.791 144.977C221.916 145.227 221.978 145.476 222.103 145.663C222.166 145.851 222.228 145.975 222.228 146.1C222.228 146.349 221.978 146.848 221.417 147.597C220.856 148.345 220.481 148.844 220.294 149.219C220.107 149.593 219.983 149.967 219.983 150.466C219.983 151.277 220.357 151.713 221.105 151.713C221.854 151.713 223.101 150.965 224.785 149.53V150.528C221.978 153.647 219.983 155.206 218.735 155.206C218.299 155.206 217.987 155.081 217.8 154.77C217.612 154.458 217.55 154.083 217.55 153.522C217.55 152.649 217.862 151.339 218.486 149.718C216.864 151.526 215.679 152.836 214.868 153.585C214.057 154.333 213.434 154.707 212.935 154.707C212.685 154.707 212.373 154.52 211.999 154.084C211.625 153.647 211.313 153.086 211.001 152.462C210.689 151.776 210.565 151.09 210.565 150.341C210.565 149.842 210.627 149.406 210.689 149.031C210.814 148.657 211.001 148.345 211.251 147.971C211.562 147.659 211.999 147.16 212.623 146.537ZM220.606 144.728C217.737 146.038 215.679 147.16 214.432 148.096C213.184 149.031 212.56 149.967 212.56 150.965C212.56 151.339 212.623 151.589 212.747 151.838C212.872 152.088 213.059 152.15 213.246 152.15C213.371 152.15 213.558 152.088 213.87 151.901C215.055 151.214 216.116 150.341 217.051 149.219C218.111 148.096 219.296 146.599 220.606 144.728Z" fill="black"/>
<path d="M234.64 149.593V150.715C233.455 151.901 232.457 152.774 231.708 153.46C230.96 154.084 230.274 154.582 229.588 154.957C228.964 155.331 228.278 155.518 227.654 155.518C227.03 155.518 226.469 155.269 225.97 154.77C225.471 154.271 225.035 153.647 224.785 152.898C224.473 152.088 224.348 151.277 224.348 150.404C224.348 149.655 224.536 148.969 224.847 148.408C225.159 147.846 225.845 147.036 226.781 146.1C227.904 144.977 228.964 144.104 229.962 143.543C230.96 142.919 231.708 142.607 232.27 142.607C232.644 142.607 233.018 142.732 233.268 143.044C233.517 143.356 233.704 143.668 233.704 144.104C233.704 144.478 233.517 144.977 233.143 145.601C232.769 146.287 232.394 146.848 231.895 147.285C231.459 147.784 231.085 148.034 230.835 148.034C230.523 148.034 230.398 147.909 230.398 147.597C230.398 147.535 230.398 147.41 230.398 147.347C230.398 147.285 230.398 147.16 230.398 147.098C230.398 146.973 230.336 146.911 230.274 146.848C230.149 146.848 230.087 146.848 229.962 146.973C228.839 147.722 228.091 148.283 227.654 148.595C227.218 148.907 226.906 149.219 226.656 149.53C226.407 149.842 226.282 150.216 226.282 150.528C226.282 151.214 226.469 151.713 226.906 152.15C227.342 152.587 227.904 152.774 228.59 152.774C229.276 152.774 230.149 152.524 231.147 151.963C232.145 151.402 233.268 150.591 234.64 149.593Z" fill="black"/>
<path d="M242.249 150.216L239.255 152.711C237.821 153.959 236.885 154.582 236.386 154.582C235.95 154.582 235.513 154.083 235.014 153.086C234.515 152.088 234.266 151.214 234.266 150.466C234.266 149.842 234.39 149.281 234.577 148.844C234.764 148.408 235.076 147.846 235.575 147.16C236.261 146.225 236.885 145.414 237.509 144.728C238.133 144.042 238.694 143.543 239.193 143.169C239.692 142.794 240.004 142.607 240.191 142.607C240.503 142.607 240.814 142.794 241.064 143.106C241.376 143.418 241.501 143.73 241.501 144.104C241.501 144.291 241.376 144.665 241.064 145.102C240.752 145.601 240.253 146.162 239.629 146.911C238.943 147.659 238.07 148.47 236.885 149.468L236.573 150.404C236.511 150.591 236.448 150.715 236.448 150.903C236.448 151.214 236.573 151.339 236.885 151.339C237.197 151.339 237.945 150.965 239.068 150.154C240.191 149.343 241.438 148.283 242.81 146.973C243.309 146.474 243.746 145.975 244.12 145.601C244.432 145.227 244.744 144.853 245.056 144.478C245.305 144.104 245.555 143.855 245.742 143.668C245.929 143.48 246.116 143.418 246.241 143.356C246.49 143.293 246.74 143.418 246.864 143.73C247.052 143.979 247.114 144.416 247.114 144.915C247.114 145.227 246.989 145.601 246.74 146.038C246.49 146.474 245.991 147.285 245.243 148.345C244.494 149.406 243.746 150.528 243.06 151.713C242.311 152.898 241.563 154.208 240.814 155.643C240.877 155.58 241.189 155.269 241.812 154.645C242.436 154.021 243.122 153.335 243.871 152.649C244.619 151.963 245.18 151.402 245.679 150.965C246.178 150.528 246.74 150.029 247.426 149.53V150.653C245.929 152.275 244.557 153.772 243.372 155.269C242.124 156.703 241.189 157.888 240.565 158.761C239.879 159.635 239.505 160.133 239.38 160.258C239.068 160.632 238.819 161.007 238.569 161.381C238.32 161.693 238.133 162.005 237.945 162.192C237.758 162.379 237.634 162.441 237.571 162.441C237.322 162.441 237.135 162.192 236.947 161.755C236.76 161.319 236.698 160.882 236.698 160.508C236.698 160.196 236.76 159.884 236.885 159.634C237.634 157.763 239.442 154.645 242.249 150.216Z" fill="black"/>
<path d="M267.696 149.53V150.653C266.948 151.339 266.387 151.776 265.95 151.963C265.513 152.212 264.89 152.275 264.016 152.212C262.582 153.959 261.272 154.77 260.212 154.77C259.588 154.77 259.027 154.582 258.528 154.146C258.029 153.709 257.592 153.148 257.28 152.462C256.969 151.776 256.844 150.965 256.844 150.092C256.844 149.406 257.093 148.595 257.53 147.722C258.029 146.848 258.59 146.038 259.339 145.289C260.087 144.541 260.898 143.917 261.771 143.48C262.644 143.044 263.393 142.794 264.141 142.794C264.64 142.794 265.077 142.857 265.389 143.044C265.701 143.231 265.825 143.418 265.825 143.73C265.825 143.979 265.7 144.229 265.451 144.478C265.888 144.541 266.137 144.728 266.324 144.915C266.511 145.102 266.574 145.476 266.574 146.038C266.574 146.599 266.449 147.223 266.199 148.034C265.95 148.844 265.638 149.593 265.202 150.341L265.513 150.653H265.763C265.95 150.653 266.137 150.591 266.324 150.528C266.511 150.466 266.698 150.341 266.823 150.217C266.886 150.092 267.197 149.905 267.696 149.53ZM264.266 145.102C263.33 145.663 262.582 146.162 261.896 146.599C261.21 147.036 260.711 147.535 260.212 147.971C259.775 148.408 259.463 148.907 259.276 149.343C259.027 150.591 258.84 151.277 258.84 151.339C258.84 152.088 259.339 152.462 260.399 152.462C260.898 152.462 261.709 152.025 262.831 151.214C262.644 150.715 262.52 150.217 262.52 149.718C262.52 149.031 262.644 148.283 262.956 147.597C263.268 146.911 263.705 146.038 264.266 145.102Z" fill="black"/>
<path d="M276.99 149.53V150.653C276.304 151.339 275.805 151.776 275.493 152.088C275.118 152.399 274.682 152.711 274.058 153.023C274.058 154.021 273.996 154.894 273.933 155.643C273.809 156.329 273.622 157.077 273.247 157.888C272.873 158.699 272.374 159.51 271.626 160.445C270.94 161.381 270.191 162.067 269.505 162.566C268.819 163.065 268.258 163.314 267.883 163.314C267.447 163.314 267.073 162.94 266.698 162.254C266.324 161.568 266.137 160.632 266.137 159.572C266.137 158.574 266.324 157.514 266.636 156.391C267.01 155.269 267.509 153.834 268.258 152.025C267.696 151.339 267.447 150.591 267.447 149.905C267.447 149.343 267.572 148.907 267.883 148.595C268.195 148.283 268.57 148.034 269.131 147.784C269.505 147.16 269.879 146.661 270.254 146.225C270.628 145.788 271.064 145.227 271.688 144.541C272.873 141.672 274.183 138.927 275.742 136.183C276.179 135.435 276.491 134.936 276.678 134.624C276.865 134.374 277.052 134.25 277.301 134.25C277.489 134.25 277.676 134.374 277.8 134.686C277.925 134.936 278.05 135.31 278.05 135.746C278.05 136.308 277.988 136.807 277.863 137.243C277.738 137.68 277.551 138.179 277.364 138.615C277.177 139.052 276.865 139.613 276.491 140.3C276.116 140.923 275.867 141.36 275.805 141.485C275.243 142.483 274.619 143.543 273.933 144.728C273.247 145.913 272.686 146.848 272.249 147.535C271.813 148.221 271.563 148.72 271.376 149.094C272 149.593 272.437 150.092 272.811 150.466C273.185 150.84 273.434 151.277 273.746 151.838C274.121 151.713 274.495 151.526 274.807 151.339C275.118 151.152 275.493 150.84 275.929 150.528C276.179 150.154 276.553 149.842 276.99 149.53ZM272 154.021L271.938 153.647C271.626 153.709 271.376 153.709 271.189 153.647C271.002 153.647 270.752 153.585 270.503 153.522C270.254 153.46 270.066 153.397 269.942 153.335C269.817 153.273 269.63 153.21 269.505 153.148C268.632 155.206 268.258 156.953 268.258 158.325C268.258 159.011 268.382 159.572 268.57 160.071C268.757 160.57 269.006 160.82 269.318 160.82C269.63 160.82 269.942 160.57 270.378 160.071C270.815 159.572 271.189 158.824 271.501 157.826C271.813 156.703 272 155.456 272 154.021Z" fill="black"/>
<path d="M297.385 143.543L296.512 144.541C297.51 144.603 298.383 144.728 299.194 144.915C300.005 145.04 300.691 145.227 301.377 145.414C302.063 145.601 302.624 145.788 303.123 145.975C304.869 146.724 305.743 147.722 305.743 149.031C305.743 149.842 305.368 150.591 304.62 151.402C303.872 152.15 302.936 152.836 301.751 153.46C300.566 154.084 299.381 154.52 298.133 154.894C296.886 155.206 295.763 155.393 294.765 155.393C293.081 155.393 291.772 155.081 290.836 154.458C289.9 153.834 289.401 152.961 289.401 151.901C289.401 151.152 289.713 150.279 290.275 149.219C290.836 148.221 291.772 146.911 292.957 145.414C292.021 145.352 291.397 145.227 291.023 144.977C290.649 144.728 290.462 144.416 290.462 144.042C290.462 143.792 290.524 143.605 290.649 143.48C290.774 143.356 290.961 143.231 291.21 143.169C291.46 143.106 291.959 143.044 292.645 142.919C293.331 142.857 294.266 142.732 295.327 142.607C296.512 141.11 297.634 139.988 298.57 139.239C299.506 138.491 300.566 138.054 301.689 137.929C301.751 137.929 301.876 137.929 302 137.929C302.125 137.929 302.188 137.929 302.188 137.992C302.188 138.054 302.063 138.241 301.813 138.553C301.564 138.865 301.127 139.302 300.566 139.925C300.005 140.549 299.318 141.297 298.57 142.171C300.691 141.921 302.375 141.547 303.684 141.235C304.994 140.861 305.992 140.424 306.678 139.925C307.364 139.426 307.676 138.865 307.676 138.241C307.676 137.493 307.302 136.931 306.616 136.62C305.867 136.308 304.807 136.121 303.31 136.121C302.499 136.121 301.564 136.183 300.504 136.37C299.443 136.557 298.508 136.744 297.634 136.931C296.761 137.119 296.013 137.368 295.327 137.618C294.641 137.867 294.329 138.054 294.329 138.117C294.329 138.179 294.391 138.179 294.454 138.241C295.015 138.428 295.264 138.615 295.264 138.74C295.264 138.927 294.454 139.239 292.769 139.738C291.085 140.237 289.963 140.487 289.401 140.487C288.965 140.487 288.778 140.299 288.778 139.863C288.778 139.364 289.214 138.491 290.15 137.243C291.023 135.996 291.834 135.185 292.582 134.811C292.832 134.686 293.456 134.499 294.391 134.249C295.327 134 296.325 133.751 297.447 133.501C298.57 133.252 299.693 133.064 300.878 132.877C302.063 132.69 303.061 132.628 303.934 132.628C306.055 132.628 307.614 133.002 308.674 133.751C309.734 134.499 310.233 135.435 310.233 136.557C310.233 137.306 309.984 138.054 309.485 138.803C308.986 139.489 308.238 140.175 307.24 140.798C306.242 141.422 304.869 141.984 303.248 142.482C301.564 142.919 299.63 143.231 297.385 143.543ZM295.639 145.663C295.077 146.35 294.516 146.973 294.079 147.472C293.643 148.033 293.331 148.408 293.081 148.782C292.894 149.094 292.769 149.468 292.769 149.78C292.769 150.341 293.019 150.778 293.58 151.214C294.142 151.651 294.953 151.838 295.95 151.838C296.886 151.838 297.946 151.651 299.007 151.339C300.067 151.027 301.002 150.528 301.751 150.029C302.499 149.468 302.874 148.907 302.874 148.345C302.874 147.846 302.624 147.472 302.063 147.16C301.501 146.848 300.691 146.599 299.568 146.349C298.508 146.1 297.198 145.851 295.639 145.663Z" fill="black"/>
<path d="M317.843 149.53V150.653C317.094 151.339 316.533 151.776 316.096 151.963C315.66 152.212 315.036 152.275 314.163 152.212C312.728 153.959 311.418 154.77 310.358 154.77C309.734 154.77 309.173 154.582 308.674 154.146C308.175 153.709 307.739 153.148 307.427 152.462C307.115 151.776 306.99 150.965 306.99 150.092C306.99 149.406 307.24 148.595 307.676 147.722C308.175 146.848 308.736 146.038 309.485 145.289C310.233 144.541 311.044 143.917 311.917 143.48C312.791 143.044 313.539 142.794 314.287 142.794C314.786 142.794 315.223 142.857 315.535 143.044C315.847 143.231 315.971 143.418 315.971 143.73C315.971 143.979 315.847 144.229 315.597 144.478C316.034 144.541 316.283 144.728 316.47 144.915C316.658 145.102 316.72 145.476 316.72 146.038C316.72 146.599 316.595 147.223 316.346 148.034C316.096 148.844 315.784 149.593 315.348 150.341L315.66 150.653H315.909C316.096 150.653 316.283 150.591 316.47 150.528C316.658 150.466 316.845 150.341 316.969 150.217C317.032 150.092 317.344 149.905 317.843 149.53ZM314.412 145.102C313.477 145.663 312.728 146.162 312.042 146.599C311.356 147.036 310.857 147.535 310.358 147.971C309.922 148.408 309.61 148.907 309.423 149.343C309.173 150.591 308.986 151.277 308.986 151.339C308.986 152.088 309.485 152.462 310.545 152.462C311.044 152.462 311.855 152.025 312.978 151.214C312.791 150.715 312.666 150.217 312.666 149.718C312.666 149.031 312.791 148.283 313.102 147.597C313.414 146.911 313.851 146.038 314.412 145.102Z" fill="black"/>
<path d="M331.128 150.653L325.577 155.206C324.017 157.888 322.583 159.884 321.335 161.256C320.088 162.566 319.09 163.252 318.466 163.252C318.154 163.252 317.967 163.065 317.967 162.628C317.967 161.817 318.404 160.82 319.215 159.572C319.527 159.073 319.901 158.574 320.337 158.138C320.774 157.639 321.148 157.264 321.523 156.953C321.897 156.641 322.396 156.204 323.019 155.705C323.643 155.206 324.08 154.832 324.267 154.645C325.39 152.399 326.2 150.653 326.699 149.406C325.639 150.528 324.766 151.402 323.955 152.15C323.144 152.836 322.458 153.397 321.834 153.772C321.211 154.146 320.587 154.333 320.088 154.333C319.527 154.333 318.965 153.896 318.529 152.961C318.03 152.025 317.78 151.09 317.78 150.154C317.78 149.718 317.905 149.219 318.092 148.72C318.279 148.221 318.591 147.722 319.09 147.16C319.527 146.599 320.088 146.038 320.774 145.476C321.46 144.915 322.271 144.291 323.144 143.792C324.891 142.732 326.2 142.171 327.136 142.171C327.822 142.171 328.196 142.42 328.196 142.981C328.196 143.73 327.448 144.416 325.889 145.102C324.953 145.539 324.017 146.038 323.082 146.724C322.146 147.41 321.398 148.096 320.836 148.907C320.275 149.655 319.963 150.341 319.963 150.965C319.963 151.277 320.026 151.526 320.15 151.651C320.275 151.838 320.462 151.901 320.712 151.901C321.086 151.901 321.523 151.713 322.021 151.339C322.52 150.965 323.269 150.341 324.267 149.468C324.703 149.031 325.327 148.408 326.013 147.472C326.762 146.537 327.385 145.851 327.822 145.352C328.321 144.853 328.758 144.603 329.132 144.603C329.381 144.603 329.568 144.665 329.693 144.79C329.818 144.915 329.88 145.102 329.88 145.414C329.88 145.913 329.693 146.661 329.257 147.659C328.82 148.657 328.134 150.216 327.074 152.462L331.128 149.53V150.653Z" fill="black"/>
<path d="M338.862 148.408C337.24 150.528 335.993 152.088 335.182 152.961C334.309 153.834 333.622 154.333 333.124 154.333C332.687 154.333 332.313 154.146 331.938 153.834C331.564 153.46 331.315 153.023 331.128 152.399C330.941 151.776 330.816 151.152 330.816 150.466C330.816 150.029 330.878 149.593 330.941 149.281C331.003 148.907 331.19 148.532 331.44 148.096C331.689 147.659 332.001 147.223 332.375 146.724C332.749 146.225 333.248 145.663 333.81 145.04C334.121 144.665 334.433 144.354 334.62 144.042C334.87 143.792 335.057 143.605 335.307 143.48C335.494 143.418 335.868 143.356 336.367 143.356C336.741 143.356 337.053 143.418 337.365 143.48C337.677 143.605 337.864 143.668 337.864 143.792C337.864 143.979 337.677 144.354 337.365 144.853C337.053 145.352 336.492 146.038 335.805 146.786C335.057 147.535 334.246 148.283 333.248 149.031C333.061 149.718 332.936 150.217 332.936 150.528C332.936 151.027 333.124 151.214 333.498 151.214C333.622 151.214 333.872 151.09 334.184 150.84C334.496 150.591 334.995 150.154 335.743 149.53C336.492 148.907 337.178 148.283 337.739 147.784C338.176 147.41 338.675 146.848 339.236 146.1C339.797 145.352 340.296 144.79 340.608 144.416C341.419 143.543 341.98 142.981 342.292 142.732C342.604 142.483 342.853 142.358 343.165 142.358C343.415 142.358 343.602 142.42 343.727 142.607C343.851 142.794 343.851 143.106 343.851 143.605C343.851 143.855 343.851 144.042 343.789 144.167C343.727 144.291 343.664 144.478 343.539 144.728C343.415 144.977 343.103 145.352 342.666 145.975C342.23 146.599 341.731 147.285 341.169 148.158C340.858 148.595 340.608 149.094 340.359 149.593C340.109 150.092 339.984 150.528 339.984 150.778C339.984 151.339 340.234 151.651 340.67 151.651C341.045 151.651 341.481 151.464 341.98 151.152C342.479 150.84 343.228 150.279 344.288 149.468V150.591C342.978 151.776 342.043 152.649 341.419 153.21C340.795 153.772 340.234 154.146 339.797 154.458C339.361 154.707 338.924 154.894 338.487 154.894C337.552 154.894 337.115 154.333 337.115 153.21C337.115 152.774 337.24 152.212 337.552 151.526C337.739 150.778 338.238 149.78 338.862 148.408Z" fill="black"/>
<path d="M343.976 150.84V149.78C344.6 149.094 345.036 148.47 345.348 147.971C344.974 147.846 344.725 147.722 344.6 147.535C344.413 147.347 344.35 147.098 344.35 146.724C344.35 146.349 344.537 145.788 344.849 145.227C345.161 144.603 345.598 144.042 346.097 143.48C346.596 142.919 347.032 142.607 347.406 142.42C347.531 142.358 347.718 142.295 347.843 142.295C348.093 142.295 348.155 142.42 348.155 142.607C348.155 142.794 347.968 143.169 347.656 143.73C349.964 143.356 351.398 143.169 352.022 143.169C352.271 143.169 352.396 143.169 352.521 143.231C352.708 143.356 352.895 143.543 352.957 143.917C353.082 144.291 353.145 144.665 353.145 145.04C353.145 145.289 353.02 145.539 352.833 145.788C352.646 146.038 352.271 146.474 351.772 146.973C351.211 147.597 350.712 148.283 350.276 149.031C349.901 149.78 349.652 150.341 349.652 150.715C349.652 151.214 349.964 151.526 350.65 151.526C351.336 151.526 352.521 150.84 354.205 149.468V150.591C353.269 151.589 352.521 152.337 351.897 152.898C351.273 153.46 350.712 153.896 350.213 154.208C349.714 154.52 349.215 154.707 348.841 154.707C348.342 154.707 347.968 154.52 347.656 154.084C347.344 153.647 347.157 153.023 347.157 152.212C347.157 151.713 347.282 151.214 347.531 150.591C347.781 149.967 348.155 149.281 348.592 148.595C349.09 147.846 349.589 147.16 350.213 146.474C349.901 146.537 349.527 146.599 349.153 146.661C348.779 146.724 348.342 146.786 347.905 146.911C347.469 146.973 347.157 147.036 346.907 147.098C346.284 148.47 345.286 149.718 343.976 150.84Z" fill="black"/>
<path d="M356.076 146.537C357.76 144.977 359.382 143.855 361.003 143.106C362.563 142.358 363.81 141.984 364.683 141.984C364.933 141.984 365.12 142.108 365.307 142.295C365.494 142.482 365.681 142.732 365.806 142.981C365.931 143.231 365.993 143.418 365.993 143.543C365.993 143.73 365.931 143.917 365.744 143.979C365.556 144.042 365.307 144.167 364.933 144.291C364.995 144.478 365.12 144.728 365.245 144.977C365.369 145.227 365.432 145.476 365.556 145.663C365.619 145.851 365.681 145.975 365.681 146.1C365.681 146.349 365.432 146.848 364.87 147.597C364.309 148.345 363.935 148.844 363.748 149.219C363.561 149.593 363.436 149.967 363.436 150.466C363.436 151.277 363.81 151.713 364.559 151.713C365.307 151.713 366.554 150.965 368.238 149.53V150.528C365.432 153.647 363.436 155.206 362.188 155.206C361.752 155.206 361.44 155.081 361.253 154.77C361.066 154.458 361.003 154.083 361.003 153.522C361.003 152.649 361.315 151.339 361.939 149.718C360.317 151.526 359.132 152.836 358.321 153.585C357.511 154.333 356.887 154.707 356.388 154.707C356.138 154.707 355.827 154.52 355.452 154.084C355.078 153.647 354.766 153.086 354.454 152.462C354.143 151.776 354.018 151.09 354.018 150.341C354.018 149.842 354.08 149.406 354.143 149.031C354.267 148.657 354.454 148.345 354.704 147.971C355.016 147.659 355.452 147.16 356.076 146.537ZM364.06 144.728C361.19 146.038 359.132 147.16 357.885 148.096C356.637 149.031 356.014 149.967 356.014 150.965C356.014 151.339 356.076 151.589 356.201 151.838C356.326 152.088 356.513 152.15 356.7 152.15C356.825 152.15 357.012 152.088 357.323 151.901C358.509 151.214 359.569 150.341 360.504 149.219C361.565 148.096 362.75 146.599 364.06 144.728Z" fill="black"/>
</svg>
